<?xml version="1.0" encoding="UTF-8" standalone="no"?>
<!-- Created with Inkscape (http://www.inkscape.org/) -->

<svg
   xmlns:dc="http://purl.org/dc/elements/1.1/"
   xmlns:cc="http://creativecommons.org/ns#"
   xmlns:rdf="http://www.w3.org/1999/02/22-rdf-syntax-ns#"
   xmlns:svg="http://www.w3.org/2000/svg"
   xmlns="http://www.w3.org/2000/svg"
   xmlns:xlink="http://www.w3.org/1999/xlink"
   xmlns:sodipodi="http://sodipodi.sourceforge.net/DTD/sodipodi-0.dtd"
   xmlns:inkscape="http://www.inkscape.org/namespaces/inkscape"
   width="800"
   height="385.47708"
   id="svg8842"
   version="1.1"
   inkscape:version="0.48.4 r9939"
   sodipodi:docname="nexus_medical_systems_green.svg"
   inkscape:export-filename="/home/steve/Pictures/nexus_medical_systems_green.png"
   inkscape:export-xdpi="90"
   inkscape:export-ydpi="90">
  <defs
     id="defs8844">
    <linearGradient
       id="linearGradient5079">
      <stop
         style="stop-color:#ffffff;stop-opacity:0;"
         offset="0"
         id="stop5081" />
      <stop
         style="stop-color:#000000;stop-opacity:0.39249146;"
         offset="1"
         id="stop5083" />
    </linearGradient>
    <filter
       color-interpolation-filters="sRGB"
       inkscape:collect="always"
       id="filter7382">
      <feGaussianBlur
         inkscape:collect="always"
         stdDeviation="2.2919979"
         id="feGaussianBlur7384" />
    </filter>
    <filter
       color-interpolation-filters="sRGB"
       inkscape:collect="always"
       id="filter16714">
      <feGaussianBlur
         inkscape:collect="always"
         stdDeviation="4.7283983"
         id="feGaussianBlur16716" />
    </filter>
    <linearGradient
       id="linearGradient5079-0">
      <stop
         style="stop-color:#ffffff;stop-opacity:0;"
         offset="0"
         id="stop5081-9" />
      <stop
         style="stop-color:#000000;stop-opacity:0.39249146;"
         offset="1"
         id="stop5083-4" />
    </linearGradient>
    <filter
       color-interpolation-filters="sRGB"
       inkscape:collect="always"
       id="filter6386">
      <feGaussianBlur
         inkscape:collect="always"
         stdDeviation="1.9268293"
         id="feGaussianBlur6388" />
    </filter>
    <filter
       color-interpolation-filters="sRGB"
       inkscape:collect="always"
       id="filter7382-8">
      <feGaussianBlur
         inkscape:collect="always"
         stdDeviation="2.2919979"
         id="feGaussianBlur7384-8" />
    </filter>
    <inkscape:path-effect
       effect="envelope"
       id="path-effect7484"
       is_visible="true"
       yy="true"
       xx="true"
       bendpath1="m 417.1579,186.69394 57.86222,-21.26652"
       bendpath2="m 474.52555,165.92199 -32.14707,62.31335"
       bendpath3="m 393.41853,247.029 50.44366,-19.7828"
       bendpath4="m 418.14704,186.19937 -25.22308,59.34592"
       bendpath1-nodetypes="cc"
       bendpath3-nodetypes="cc"
       bendpath2-nodetypes="cc"
       bendpath4-nodetypes="cc" />
    <inkscape:path-effect
       effect="envelope"
       id="path-effect8786"
       is_visible="true"
       yy="true"
       xx="true"
       bendpath1="m 417.1579,186.69394 57.86222,-21.26652"
       bendpath2="m 474.52555,165.92199 -32.14707,62.31335"
       bendpath3="m 393.41853,247.029 50.44366,-19.7828"
       bendpath4="m 418.14704,186.19937 -25.22308,59.34592"
       bendpath1-nodetypes="cc"
       bendpath3-nodetypes="cc"
       bendpath2-nodetypes="cc"
       bendpath4-nodetypes="cc" />
    <inkscape:path-effect
       effect="envelope"
       id="path-effect8788"
       is_visible="true"
       yy="true"
       xx="true"
       bendpath1="m 417.1579,186.69394 57.86222,-21.26652"
       bendpath2="m 474.52555,165.92199 -32.14707,62.31335"
       bendpath3="m 393.41853,247.029 50.44366,-19.7828"
       bendpath4="m 418.14704,186.19937 -25.22308,59.34592"
       bendpath1-nodetypes="cc"
       bendpath3-nodetypes="cc"
       bendpath2-nodetypes="cc"
       bendpath4-nodetypes="cc" />
    <inkscape:path-effect
       effect="envelope"
       id="path-effect8790"
       is_visible="true"
       yy="true"
       xx="true"
       bendpath1="m 417.1579,186.69394 57.86222,-21.26652"
       bendpath2="m 474.52555,165.92199 -32.14707,62.31335"
       bendpath3="m 393.41853,247.029 50.44366,-19.7828"
       bendpath4="m 418.14704,186.19937 -25.22308,59.34592"
       bendpath1-nodetypes="cc"
       bendpath3-nodetypes="cc"
       bendpath2-nodetypes="cc"
       bendpath4-nodetypes="cc" />
    <radialGradient
       inkscape:collect="always"
       xlink:href="#linearGradient5079"
       id="radialGradient4000"
       gradientUnits="userSpaceOnUse"
       gradientTransform="matrix(0.6400001,0.92,-0.8209052,0.5710646,396.74293,60.729304)"
       cx="108.17415"
       cy="439.72729"
       fx="108.17415"
       fy="439.72729"
       r="75" />
    <radialGradient
       inkscape:collect="always"
       xlink:href="#linearGradient5079-0"
       id="radialGradient4002"
       gradientUnits="userSpaceOnUse"
       gradientTransform="matrix(0.6400001,0.92,-0.8209052,0.5710646,396.74293,60.729304)"
       cx="108.17415"
       cy="439.72729"
       fx="108.17415"
       fy="439.72729"
       r="75" />
  </defs>
  <sodipodi:namedview
     id="base"
     pagecolor="#ffffff"
     bordercolor="#666666"
     borderopacity="1.0"
     inkscape:pageopacity="1"
     inkscape:pageshadow="2"
     inkscape:zoom="0.97968464"
     inkscape:cx="286.63289"
     inkscape:cy="146.21524"
     inkscape:current-layer="layer2"
     inkscape:document-units="px"
     showgrid="false"
     fit-margin-top="0"
     fit-margin-left="0"
     fit-margin-right="0"
     fit-margin-bottom="0"
     inkscape:window-width="1600"
     inkscape:window-height="851"
     inkscape:window-x="0"
     inkscape:window-y="25"
     inkscape:window-maximized="1" />
  <metadata
     id="metadata8847">
    <rdf:RDF>
      <cc:Work
         rdf:about="">
        <dc:format>image/svg+xml</dc:format>
        <dc:type
           rdf:resource="http://purl.org/dc/dcmitype/StillImage" />
        <dc:title></dc:title>
      </cc:Work>
    </rdf:RDF>
  </metadata>
  <g
     inkscape:groupmode="layer"
     id="layer2"
     inkscape:label="Layer"
     transform="translate(-282.99999,-191.26145)" />
  <g
     id="layer1"
     inkscape:label="Layer 1"
     inkscape:groupmode="layer"
     transform="translate(-304.49999,-472.16646)">
    <g
       id="g3944"
       transform="matrix(1.0714354,0,0,1.0714354,-42.45588,-41.285307)">
      <g
         id="g7498"
         transform="matrix(0.90366174,0,0,0.90366174,644.25425,375.47504)">
        <g
           transform="matrix(1.9293404,0,0,1.9293404,-779.9138,11.193161)"
           id="g5137">
          <path
             sodipodi:type="arc"
             style="fill:#00ff00;fill-opacity:1;stroke-width:1;stroke-linecap:round;stroke-linejoin:bevel;stroke-miterlimit:4;stroke-opacity:0.44705882;stroke-dasharray:none;stroke-dashoffset:0"
             id="path2211"
             sodipodi:cx="128"
             sodipodi:cy="426.36218"
             sodipodi:rx="75"
             sodipodi:ry="75"
             d="m 203,426.36218 c 0,41.42136 -33.57864,75 -75,75 -41.421356,0 -75,-33.57864 -75,-75 0,-41.42135 33.578644,-75 75,-75 41.42136,0 75,33.57865 75,75 z"
             transform="translate(420.58549,-282.68688)" />
          <path
             transform="translate(420.58549,-282.68688)"
             d="m 203,426.36218 c 0,41.42136 -33.57864,75 -75,75 -41.421356,0 -75,-33.57864 -75,-75 0,-41.42135 33.578644,-75 75,-75 41.42136,0 75,33.57865 75,75 z"
             sodipodi:ry="75"
             sodipodi:rx="75"
             sodipodi:cy="426.36218"
             sodipodi:cx="128"
             id="path2213"
             style="fill:url(#radialGradient4000);fill-opacity:1;stroke-width:1;stroke-linecap:round;stroke-linejoin:bevel;stroke-miterlimit:4;stroke-opacity:0.44705882;stroke-dasharray:none;stroke-dashoffset:0"
             sodipodi:type="arc" />
        </g>
        <g
           id="g4823"
           transform="translate(3.0869632,4.0470603)">
          <path
             transform="translate(-0.3069118,-0.8746645)"
             inkscape:tile-y0="140.93361"
             inkscape:tile-x0="131.42857"
             inkscape:tile-h="288.57144"
             inkscape:tile-w="288.57144"
             inkscape:tile-cy="285.21933"
             inkscape:tile-cx="275.71429"
             d="m 420.00002,285.21933 c 0,79.6868 -64.59892,144.28572 -144.28573,144.28572 -79.6868,0 -144.28572,-64.59892 -144.28572,-144.28572 0,-79.6868 64.59892,-144.28572 144.28572,-144.28572 79.68681,0 144.28573,64.59892 144.28573,144.28572 z"
             sodipodi:ry="144.28572"
             sodipodi:rx="144.28572"
             sodipodi:cy="285.21933"
             sodipodi:cx="275.71429"
             id="path4520"
             style="fill:none;stroke:#000000;stroke-width:1;stroke-linecap:round;stroke-linejoin:miter;stroke-miterlimit:4;stroke-opacity:1;stroke-dasharray:none;stroke-dashoffset:0"
             sodipodi:type="arc" />
          <g
             transform="translate(-288.76281,-289.24261)"
             id="g4799">
            <use
               height="1052.3622"
               width="744.09448"
               x="0"
               y="0"
               inkscape:tiled-clone-of="#path4520"
               xlink:href="#path4520"
               transform="translate(288.87835,289.4461)"
               id="use4687" />
            <use
               height="1052.3622"
               width="744.09448"
               x="0"
               y="0"
               inkscape:tiled-clone-of="#path4520"
               xlink:href="#path4520"
               transform="matrix(0.9,0,0,1,316.41909,289.4461)"
               id="use4689" />
            <use
               height="1052.3622"
               width="744.09448"
               x="0"
               y="0"
               inkscape:tiled-clone-of="#path4520"
               xlink:href="#path4520"
               transform="matrix(0.8,0,0,1,343.95983,289.4461)"
               id="use4691" />
            <use
               height="1052.3622"
               width="744.09448"
               x="0"
               y="0"
               inkscape:tiled-clone-of="#path4520"
               xlink:href="#path4520"
               transform="matrix(0.7,0,0,1,371.50057,289.4461)"
               id="use4693" />
            <use
               height="1052.3622"
               width="744.09448"
               x="0"
               y="0"
               inkscape:tiled-clone-of="#path4520"
               xlink:href="#path4520"
               transform="matrix(0.6,0,0,1,399.04131,289.4461)"
               id="use4695" />
            <use
               height="1052.3622"
               width="744.09448"
               x="0"
               y="0"
               inkscape:tiled-clone-of="#path4520"
               xlink:href="#path4520"
               transform="matrix(0.5,0,0,1,426.58205,289.4461)"
               id="use4697" />
            <use
               height="1052.3622"
               width="744.09448"
               x="0"
               y="0"
               inkscape:tiled-clone-of="#path4520"
               xlink:href="#path4520"
               transform="matrix(0.4,0,0,1,454.12278,289.4461)"
               id="use4699" />
            <use
               height="1052.3622"
               width="744.09448"
               x="0"
               y="0"
               inkscape:tiled-clone-of="#path4520"
               xlink:href="#path4520"
               transform="matrix(0.3,0,0,1,481.66352,289.4461)"
               id="use4701" />
            <use
               height="1052.3622"
               width="744.09448"
               x="0"
               y="0"
               inkscape:tiled-clone-of="#path4520"
               xlink:href="#path4520"
               transform="matrix(0.2,0,0,1,509.20426,289.4461)"
               id="use4703" />
            <use
               height="1052.3622"
               width="744.09448"
               x="0"
               y="0"
               inkscape:tiled-clone-of="#path4520"
               xlink:href="#path4520"
               transform="matrix(0.1,0,0,1,536.745,289.4461)"
               id="use4705" />
            <path
               style="fill:none;stroke:#000000;stroke-width:1px;stroke-linecap:butt;stroke-linejoin:miter;stroke-opacity:1"
               d="m 564.67527,429.09806 -1.01015,288.90363"
               id="path4707"
               inkscape:connector-curvature="0" />
            <use
               id="use4776"
               transform="matrix(0,1,-1,0,848.6304,298.38339)"
               xlink:href="#path4520"
               inkscape:tiled-clone-of="#path4520"
               y="0"
               x="0"
               width="744.09448"
               height="1052.3622" />
            <use
               id="use4778"
               transform="matrix(0,0.9,-1,0,848.6304,325.92412)"
               xlink:href="#path4520"
               inkscape:tiled-clone-of="#path4520"
               y="0"
               x="0"
               width="744.09448"
               height="1052.3622" />
            <use
               id="use4780"
               transform="matrix(0,0.8,-1,0,848.63041,353.46486)"
               xlink:href="#path4520"
               inkscape:tiled-clone-of="#path4520"
               y="0"
               x="0"
               width="744.09448"
               height="1052.3622" />
            <use
               id="use4782"
               transform="matrix(0,0.7,-1,0,848.63041,381.0056)"
               xlink:href="#path4520"
               inkscape:tiled-clone-of="#path4520"
               y="0"
               x="0"
               width="744.09448"
               height="1052.3622" />
            <use
               id="use4784"
               transform="matrix(0,0.6,-1,0,848.63041,408.54634)"
               xlink:href="#path4520"
               inkscape:tiled-clone-of="#path4520"
               y="0"
               x="0"
               width="744.09448"
               height="1052.3622" />
            <use
               id="use4786"
               transform="matrix(0,0.5,-1,0,848.63041,436.08708)"
               xlink:href="#path4520"
               inkscape:tiled-clone-of="#path4520"
               y="0"
               x="0"
               width="744.09448"
               height="1052.3622" />
            <use
               id="use4788"
               transform="matrix(0,0.4,-1,0,848.63041,463.62781)"
               xlink:href="#path4520"
               inkscape:tiled-clone-of="#path4520"
               y="0"
               x="0"
               width="744.09448"
               height="1052.3622" />
            <use
               id="use4790"
               transform="matrix(0,0.3,-1,0,848.63041,491.16855)"
               xlink:href="#path4520"
               inkscape:tiled-clone-of="#path4520"
               y="0"
               x="0"
               width="744.09448"
               height="1052.3622" />
            <use
               id="use4792"
               transform="matrix(0,0.2,-1,0,848.63041,518.70929)"
               xlink:href="#path4520"
               inkscape:tiled-clone-of="#path4520"
               y="0"
               x="0"
               width="744.09448"
               height="1052.3622" />
            <use
               id="use4794"
               transform="matrix(0,0.1,-1,0,848.63041,546.25003)"
               xlink:href="#path4520"
               inkscape:tiled-clone-of="#path4520"
               y="0"
               x="0"
               width="744.09448"
               height="1052.3622" />
            <path
               inkscape:connector-curvature="0"
               id="path4796"
               style="fill:none;stroke:#000000;stroke-width:1px;stroke-linecap:butt;stroke-linejoin:miter;stroke-opacity:1"
               d="M 708.62201,574.05495 419.71838,573.0448" />
          </g>
        </g>
        <g
           id="g5133"
           transform="matrix(1.9788359,0,0,1.9788359,-804.91382,4.8771228)">
          <path
             id="path6390"
             d="m 619.17066,125.66729 c 4.19575,34.46195 -18.14619,69.69965 -51.06674,80.64883 -22.81039,8.26882 -49.5529,4.5491 -69.24576,-9.24259 23.94003,23.2021 64.25886,26.16243 91.37998,6.5178 24.98592,-16.81481 37.0708,-50.07851 28.80752,-79.01779 l 0.11355,0.99352 0.0114,0.10023 z"
             style="fill:#ffffff;fill-opacity:0.67283953;stroke-width:1;stroke-linecap:round;stroke-linejoin:bevel;stroke-miterlimit:4;stroke-opacity:0.44705882;stroke-dasharray:none;stroke-dashoffset:0;filter:url(#filter7382)"
             inkscape:connector-curvature="0" />
          <path
             inkscape:connector-curvature="0"
             id="path15698"
             d="m 548.15105,66.899207 c -1.3261,3.7e-4 -2.67349,0.04785 -4,0.125 -33.57798,1.01696 -63.96365,28.45856 -68.4375,61.812503 -4.33187,25.04187 6.40308,51.26529 25.65625,67.40625 -13.44421,-15.9803 -20.25514,-37.60164 -16.65625,-58.40625 4.47385,-33.35394 34.85952,-60.795543 68.4375,-61.812503 18.31733,-1.06537 36.75693,5.25944 50.75,17.0625 -0.86717,-1.01125 -1.75457,-2.03862 -2.6875,-3 -13.5407,-14.65795 -33.17107,-23.19302 -53.0625,-23.1875 z"
             style="fill:#ffffff;fill-opacity:1;stroke-width:1;stroke-linecap:round;stroke-linejoin:bevel;stroke-miterlimit:4;stroke-opacity:0.44705882;stroke-dasharray:none;stroke-dashoffset:0;filter:url(#filter16714)" />
        </g>
        <g
           id="g5262"
           transform="matrix(1.6362265,0.97496277,-0.97496277,1.6362265,-476.12527,-486.26924)">
          <path
             inkscape:connector-curvature="0"
             id="path16718"
             d="m 609.79306,180.73925 c -35.33289,9.49597 -83.45892,9.45547 -117.91731,-1.03816 -40.70599,-11.56885 -58.44021,-35.58125 -40.98206,-55.22358 6.69276,-8.29288 19.26227,-15.42087 35.05993,-20.73682 -19.90923,5.47173 -35.9369,13.62324 -43.8263,23.39887 -17.45815,19.64233 0.27607,43.65473 40.98206,55.22358 37.40888,11.39213 90.91364,10.4488 126.68368,-1.62389 z"
             style="fill:#000000;fill-opacity:1;stroke-width:1;stroke-linecap:round;stroke-linejoin:bevel;stroke-miterlimit:4;stroke-opacity:0.44705882;stroke-dasharray:none;stroke-dashoffset:0" />
          <path
             style="fill:#000000;fill-opacity:1;stroke-width:1;stroke-linecap:round;stroke-linejoin:bevel;stroke-miterlimit:4;stroke-opacity:0.44705882;stroke-dasharray:none;stroke-dashoffset:0"
             d="m 486.97991,181.23925 c 35.33289,9.49597 83.45892,9.45547 117.91731,-1.03816 40.70599,-11.56885 58.44021,-35.58125 40.98205,-55.22358 -6.69276,-8.29288 -19.26227,-15.42087 -35.05992,-20.73682 19.90922,5.47173 35.93689,13.62324 43.82629,23.39887 17.45816,19.64233 -0.27606,43.65473 -40.98205,55.22358 -37.40888,11.39213 -90.91365,10.4488 -126.68368,-1.62389 z"
             id="path3885"
             inkscape:connector-curvature="0" />
        </g>
        <g
           transform="matrix(0.20396637,0,0,0.20396637,22.898035,126.54363)"
           id="g5359">
          <path
             sodipodi:type="arc"
             style="fill:#00ff00;fill-opacity:1;stroke-width:1;stroke-linecap:round;stroke-linejoin:bevel;stroke-miterlimit:4;stroke-opacity:0.44705882;stroke-dasharray:none;stroke-dashoffset:0"
             id="path2211-2"
             sodipodi:cx="128"
             sodipodi:cy="426.36218"
             sodipodi:rx="75"
             sodipodi:ry="75"
             d="m 203,426.36218 c 0,41.42136 -33.57864,75 -75,75 -41.421356,0 -75,-33.57864 -75,-75 0,-41.42135 33.578644,-75 75,-75 41.42136,0 75,33.57865 75,75 z"
             transform="translate(420.58549,-282.68688)" />
          <path
             transform="translate(420.58549,-282.68688)"
             d="m 203,426.36218 c 0,41.42136 -33.57864,75 -75,75 -41.421356,0 -75,-33.57864 -75,-75 0,-41.42135 33.578644,-75 75,-75 41.42136,0 75,33.57865 75,75 z"
             sodipodi:ry="75"
             sodipodi:rx="75"
             sodipodi:cy="426.36218"
             sodipodi:cx="128"
             id="path2213-4"
             style="fill:url(#radialGradient4002);fill-opacity:1;stroke-width:1;stroke-linecap:round;stroke-linejoin:bevel;stroke-miterlimit:4;stroke-opacity:0.44705882;stroke-dasharray:none;stroke-dashoffset:0"
             sodipodi:type="arc" />
          <path
             inkscape:connector-curvature="0"
             id="path4326"
             d="m 529.38941,76.979785 c -9.09503,7.45874 -17.95929,15.04535 -25.5625,23.250005 l 12.53125,7.4375 c 5.95345,-8.546215 13.30434,-16.673335 21.03125,-24.687505 l -8,-6 z m 14,13 c -8.61745,6.56609 -14.8652,14.020865 -19.5625,22.093755 l 13.21875,7.84375 c 4.30978,-9.07163 9.41095,-17.61457 13.34375,-26.937505 l -7,-3 z m -48.1875,20.687505 c -7.49056,10.33049 -12.66565,21.81016 -13.8125,35.31249 l 22,11 c -2.36591,-13.29874 0.018,-25.16811 5.25,-36.18749 l -13.4375,-10.125 z m 21.71875,16.37499 c -3.97949,11.03214 -6.26332,22.84626 -8.53125,34.9375 l 21,4 c -1.73339,-10.96759 -0.96564,-20.2901 1.15625,-28.6875 l -13.625,-10.25 z"
             style="fill:#ffffff;fill-opacity:0.95679016;fill-rule:evenodd;stroke-width:1px;stroke-linecap:butt;stroke-linejoin:miter;stroke-opacity:1;filter:url(#filter6386)" />
          <path
             inkscape:connector-curvature="0"
             id="path6390-5"
             d="m 619.17066,125.66729 c 4.19575,34.46195 -18.14619,69.69965 -51.06674,80.64883 -22.81039,8.26882 -49.5529,4.5491 -69.24576,-9.24259 23.94003,23.2021 64.25886,26.16243 91.37998,6.5178 24.98592,-16.81481 37.0708,-50.07851 28.80752,-79.01779 l 0.11355,0.99352 0.0114,0.10023 z"
             style="fill:#ffffff;fill-opacity:0.67283953;stroke-width:1;stroke-linecap:round;stroke-linejoin:bevel;stroke-miterlimit:4;stroke-opacity:0.44705882;stroke-dasharray:none;stroke-dashoffset:0;filter:url(#filter7382-8)" />
        </g>
        <g
           id="g5501"
           transform="translate(-155.23041,78.701522)">
          <path
             id="rect3955"
             style="fill:#ff0000;fill-opacity:1;stroke:none"
             d="m 409.24478,201.53021 48.95995,0 0,16.31999 -48.95995,0 z m 16.31998,32.63997 0,-48.95995 16.31998,0 0,48.95995 z"
             inkscape:connector-curvature="0" />
        </g>
        <g
           transform="matrix(0.25488202,0,0,0.25488202,236.76428,324.25335)"
           id="g7480"
           inkscape:path-effect="#path-effect7484">
          <path
             d="m 409.34,205.98256 c 4.51704,-1.73067 9.02629,-3.36174 13.56066,-5.00495 4.53438,-1.64321 9.09387,-3.29857 13.66303,-4.97482 4.56915,-1.67626 9.14796,-3.37342 13.67258,-4.99724 4.52463,-1.62381 8.99506,-3.17428 13.29909,-4.45414 -3.60387,6.95855 -7.18684,13.88846 -10.67644,20.75443 -4.05569,1.17214 -8.28489,2.64214 -12.58053,4.19731 -4.29564,1.55516 -8.65771,3.19548 -13.02754,4.81126 -4.36982,1.61578 -8.7474,3.20701 -13.1224,4.76699 -4.375,1.55998 -8.74744,3.08872 -13.15537,4.68252 2.80496,-6.68328 5.6303,-13.2522 8.36692,-19.78136 z m 0.53446,34.29237 c 4.06703,-10.53675 8.62803,-20.83077 13.10959,-30.91663 4.48157,-10.08586 8.8837,-19.96356 13.12577,-29.85485 6.36067,-2.29513 12.81828,-4.67256 19.26661,-7.06759 -4.81584,10.0828 -9.68206,20.18314 -14.55923,30.39912 -4.87717,10.21599 -9.76528,20.54761 -14.13217,30.90581 -5.54294,2.21833 -11.16965,4.45458 -16.81057,6.53414 z"
             style="fill:#ff0000;fill-opacity:1;stroke:none"
             id="path7482"
             inkscape:connector-curvature="0"
             inkscape:original-d="m 409.24478,201.53021 48.95995,0 0,16.31999 -48.95995,0 z m 16.31998,32.63997 0,-48.95995 16.31998,0 0,48.95995 z" />
        </g>
        <g
           inkscape:path-effect="#path-effect7484"
           id="g7486"
           transform="matrix(-0.25488202,0,0,-0.25488202,320.68337,252.30305)">
          <path
             inkscape:original-d="m 409.24478,201.53021 48.95995,0 0,16.31999 -48.95995,0 z m 16.31998,32.63997 0,-48.95995 16.31998,0 0,48.95995 z"
             inkscape:connector-curvature="0"
             id="path7488"
             style="fill:#ff0000;fill-opacity:1;stroke:none"
             d="m 409.34,205.98256 c 4.51704,-1.73067 9.02629,-3.36174 13.56066,-5.00495 4.53438,-1.64321 9.09387,-3.29857 13.66303,-4.97482 4.56915,-1.67626 9.14796,-3.37342 13.67258,-4.99724 4.52463,-1.62381 8.99506,-3.17428 13.29909,-4.45414 -3.60387,6.95855 -7.18684,13.88846 -10.67644,20.75443 -4.05569,1.17214 -8.28489,2.64214 -12.58053,4.19731 -4.29564,1.55516 -8.65771,3.19548 -13.02754,4.81126 -4.36982,1.61578 -8.7474,3.20701 -13.1224,4.76699 -4.375,1.55998 -8.74744,3.08872 -13.15537,4.68252 2.80496,-6.68328 5.6303,-13.2522 8.36692,-19.78136 z m 0.53446,34.29237 c 4.06703,-10.53675 8.62803,-20.83077 13.10959,-30.91663 4.48157,-10.08586 8.8837,-19.96356 13.12577,-29.85485 6.36067,-2.29513 12.81828,-4.67256 19.26661,-7.06759 -4.81584,10.0828 -9.68206,20.18314 -14.55923,30.39912 -4.87717,10.21599 -9.76528,20.54761 -14.13217,30.90581 -5.54294,2.21833 -11.16965,4.45458 -16.81057,6.53414 z" />
        </g>
        <g
           transform="matrix(0.25488202,0,0,-0.25488202,237.47856,252.30305)"
           id="g7490"
           inkscape:path-effect="#path-effect7484">
          <path
             d="m 409.34,205.98256 c 4.51704,-1.73067 9.02629,-3.36174 13.56066,-5.00495 4.53438,-1.64321 9.09387,-3.29857 13.66303,-4.97482 4.56915,-1.67626 9.14796,-3.37342 13.67258,-4.99724 4.52463,-1.62381 8.99506,-3.17428 13.29909,-4.45414 -3.60387,6.95855 -7.18684,13.88846 -10.67644,20.75443 -4.05569,1.17214 -8.28489,2.64214 -12.58053,4.19731 -4.29564,1.55516 -8.65771,3.19548 -13.02754,4.81126 -4.36982,1.61578 -8.7474,3.20701 -13.1224,4.76699 -4.375,1.55998 -8.74744,3.08872 -13.15537,4.68252 2.80496,-6.68328 5.6303,-13.2522 8.36692,-19.78136 z m 0.53446,34.29237 c 4.06703,-10.53675 8.62803,-20.83077 13.10959,-30.91663 4.48157,-10.08586 8.8837,-19.96356 13.12577,-29.85485 6.36067,-2.29513 12.81828,-4.67256 19.26661,-7.06759 -4.81584,10.0828 -9.68206,20.18314 -14.55923,30.39912 -4.87717,10.21599 -9.76528,20.54761 -14.13217,30.90581 -5.54294,2.21833 -11.16965,4.45458 -16.81057,6.53414 z"
             style="fill:#ff0000;fill-opacity:1;stroke:none"
             id="path7492"
             inkscape:connector-curvature="0"
             inkscape:original-d="m 409.24478,201.53021 48.95995,0 0,16.31999 -48.95995,0 z m 16.31998,32.63997 0,-48.95995 16.31998,0 0,48.95995 z" />
        </g>
        <g
           inkscape:path-effect="#path-effect7484"
           id="g7494"
           transform="matrix(-0.25488202,0,0,0.25488202,320.68337,325.32478)">
          <path
             inkscape:original-d="m 409.24478,201.53021 48.95995,0 0,16.31999 -48.95995,0 z m 16.31998,32.63997 0,-48.95995 16.31998,0 0,48.95995 z"
             inkscape:connector-curvature="0"
             id="path7496"
             style="fill:#ff0000;fill-opacity:1;stroke:none"
             d="m 409.34,205.98256 c 4.51704,-1.73067 9.02629,-3.36174 13.56066,-5.00495 4.53438,-1.64321 9.09387,-3.29857 13.66303,-4.97482 4.56915,-1.67626 9.14796,-3.37342 13.67258,-4.99724 4.52463,-1.62381 8.99506,-3.17428 13.29909,-4.45414 -3.60387,6.95855 -7.18684,13.88846 -10.67644,20.75443 -4.05569,1.17214 -8.28489,2.64214 -12.58053,4.19731 -4.29564,1.55516 -8.65771,3.19548 -13.02754,4.81126 -4.36982,1.61578 -8.7474,3.20701 -13.1224,4.76699 -4.375,1.55998 -8.74744,3.08872 -13.15537,4.68252 2.80496,-6.68328 5.6303,-13.2522 8.36692,-19.78136 z m 0.53446,34.29237 c 4.06703,-10.53675 8.62803,-20.83077 13.10959,-30.91663 4.48157,-10.08586 8.8837,-19.96356 13.12577,-29.85485 6.36067,-2.29513 12.81828,-4.67256 19.26661,-7.06759 -4.81584,10.0828 -9.68206,20.18314 -14.55923,30.39912 -4.87717,10.21599 -9.76528,20.54761 -14.13217,30.90581 -5.54294,2.21833 -11.16965,4.45458 -16.81057,6.53414 z" />
        </g>
      </g>
      <text
         sodipodi:linespacing="125%"
         id="text8995"
         y="740.12439"
         x="312.8801"
         style="font-size:131.77960205px;font-style:normal;font-weight:normal;line-height:125%;letter-spacing:0px;word-spacing:0px;fill:#000000;fill-opacity:1;stroke:#00f100;stroke-width:2.79345202;stroke-miterlimit:4;stroke-opacity:1;stroke-dasharray:none;font-family:Sans"
         xml:space="preserve"><tspan
           style="stroke-width:2.79345202"
           y="740.12439"
           x="312.8801"
           id="tspan8997"
           sodipodi:role="line">NEXUS</tspan></text>
      <text
         sodipodi:linespacing="125%"
         id="text8999"
         y="836.90271"
         x="317.07645"
         style="font-size:78.70715332px;font-style:normal;font-weight:normal;line-height:125%;letter-spacing:0px;word-spacing:0px;fill:#000000;fill-opacity:1;stroke:#00f100;stroke-width:1.95541644;stroke-miterlimit:4;stroke-opacity:1;stroke-dasharray:none;font-family:Sans"
         xml:space="preserve"><tspan
           style="stroke-width:1.95541644"
           y="836.90271"
           x="317.07645"
           id="tspan9001"
           sodipodi:role="line">MEDICAL SYSTEMS</tspan></text>
    </g>
  </g>
</svg>
